<svg width="138" height="47" viewBox="0 0 138 47" fill="none" xmlns="http://www.w3.org/2000/svg">
<path d="M1.00446 1C1.65496 1.1401 2.03906 1.0958 2.42376 1.6209C3.89396 3.6271 4.26906 9.6512 7.22946 10.2204C8.61656 10.4871 12.0143 8.2067 14.1023 8.4263C14.7816 8.8765 14.5963 8.6267 14.8223 9.4259C14.62 10.0903 14.1178 10.3805 13.5774 10.7684C10.7314 12.8112 8.86196 15.4181 6.74776 18.1753C11.4262 21.0848 9.79016 21.5988 16.5593 23.8631C15.0678 27.4774 13.4195 30.2978 11.4756 33.6601C10.1704 35.9856 4.67146 47.8517 1.88416 46.92C1.62876 46.5148 1.39396 45.7824 1.39916 45.3185C1.48546 37.7156 -1.50334 6.2416 1.00446 1Z" fill="#FEFEFE"/>
<path d="M5.61706 20.7674C7.19246 21.3831 10.3739 24.2473 13.4554 25.5572C11.0728 30.2687 8.60886 34.9387 6.06486 39.565C5.14546 41.0061 3.85706 43.7454 3.06236 45.353C3.04516 39.0382 2.04916 31.4896 3.47726 25.2976C3.76456 24.0521 4.97906 21.9562 5.61706 20.7674Z" fill="black"/>
<path d="M3.38235 11.0344C4.51665 11.7273 5.93015 12.4386 6.38675 13.5899C6.35865 14.5754 5.25925 15.9451 4.66245 16.8272C4.17925 17.7369 3.55175 18.5601 2.94885 19.3959C2.95085 16.3941 2.88255 14.0107 3.38235 11.0344Z" fill="black"/>
<path d="M47.3384 1C47.9818 1.0454 48.4589 1.0278 49.0071 1.3786C49.9567 2.8003 51.6138 19.0705 52.0896 22.1245C52.8794 22.5587 53.4027 21.38 54.6577 21.5855C55.1039 22.1651 54.9978 21.9146 54.9886 22.7219C54.5075 23.6905 53.3436 24.5969 52.5065 25.3425C53.0766 27.8785 56.5873 44.8612 55.5646 46.288L55.1519 46.3132C54.4526 45.5709 51.3788 29.7694 50.5169 26.8857C50.1351 27.1395 49.3731 27.902 49.0055 28.2498C47.4402 29.6347 47.6318 28.528 46.0138 28.3275C44.3284 30.7837 44.772 44.8589 42.4631 46.4119C41.3716 44.8694 43.6778 29.2852 44.0191 26.4158C42.892 25.8791 40.0523 24.6741 40.6379 23.1495C41.9146 22.6921 43.2935 23.6213 44.4392 24.2026C44.5064 21.9688 45.3323 16.1147 45.6352 13.735C46.0105 10.786 46.588 3.546 47.3384 1Z" fill="#FEFEFE"/>
<path d="M47.9652 14.2438C48.7892 14.8716 49.9048 22.904 50.2284 24.5564C49.5256 25.2738 48.9754 25.7045 48.1901 26.3262C47.4881 26.4479 47.1198 26.1659 46.72 25.684C46.2372 23.9481 47.7045 16.7334 47.9652 14.2438Z" fill="black"/>
<path d="M87.6501 2C88.1173 2.1044 94.1322 7.9081 95.198 8.8602C95.3503 9.8289 95.4561 9.5817 95.0552 10.2845C93.1323 10.9169 89.995 8.3753 88.7325 7.0572C87.6717 8.3038 84.9539 10.4784 83.555 11.7609C83.9369 11.919 84.3226 12.0677 84.7117 12.2069C87.8195 13.3512 92.6353 13.2821 95.5778 11.7193C96.6156 11.1682 97.1576 10.7954 98.2816 11.2152C98.7276 12.2606 97.4394 16.0033 96.8018 17.2538C94.9738 20.8392 92.8109 45.9162 90.6543 46.9366C89.1714 45.4683 86.5971 35.4308 85.9096 33.0168C85.1325 30.2782 84.3429 27.5033 83.6662 24.7402C83.1891 22.7922 82.0166 19.9423 83.6789 18.3214L84.259 18.4295C85.0925 19.4103 85.9497 24.9754 86.2981 26.5258C87.5078 31.9082 88.5973 37.4179 90.5781 42.5839C91.673 35.0535 92.9037 21.8932 94.516 15.2348C89.915 16.116 85.2384 15.0736 81.1045 12.9972C80.3749 12.6308 79.9423 12.072 79.7502 11.2849C80.2655 8.8337 84.3969 8.0538 85.9158 6.0163C86.8065 4.8215 86.3756 3.6504 87.6501 2Z" fill="#FEFEFE"/>
<path d="M129.276 0C130.618 0.5196 137.396 7.7953 136.632 9.5874L136.134 9.7034C134.143 9.0514 131.51 6.1782 130.127 4.5519C129.432 6.2776 127.928 8.608 126.984 10.3934C128.91 10.5331 133.685 10.8037 135.031 12.0417L135.001 12.5061C133.246 13.876 128.037 13.2185 125.691 13.0608C127.241 23.7547 128.936 33.0581 130.726 43.6182C131.526 41.4764 133.732 27.4234 134.059 24.8274C134.452 22.4932 134.884 16.2066 137.044 15.171C137.198 15.2193 137.553 15.2822 137.617 15.4206C138.271 16.8269 133.253 41.8299 132.353 44.6371C132.027 45.6568 131.722 46.4002 130.747 46.8987L130.219 46.6896C129.106 45.0098 128.431 40.9462 127.987 38.8367C126.948 34.0902 125.96 29.3325 125.023 24.5647C124.404 21.2524 123.529 14.7757 122.374 11.8646C126.163 6.4164 126.415 5.5865 129.276 0Z" fill="#FEFEFE"/>
</svg>
