<?xml version="1.0" encoding="utf-8" ?><svg xmlns="http://www.w3.org/2000/svg" xmlns:xlink="http://www.w3.org/1999/xlink" width="150" height="150" viewBox="0 0 150 150"><path d="M0 0L150 0L150 150L0 150L0 0Z"/><path fill="#FEFEFE" d="M37.504 49.0526C38.1545 49.1927 38.5386 49.1484 38.9233 49.6735C40.3935 51.6797 40.7686 57.7038 43.729 58.273C45.1161 58.5397 48.5138 56.2593 50.6018 56.4789C51.2811 56.9291 51.0958 56.6793 51.3218 57.4785C51.1195 58.1429 50.6173 58.4331 50.0769 58.821C47.2309 60.8638 45.3615 63.4707 43.2473 66.2279C47.9257 69.1374 46.2897 69.6514 53.0588 71.9157C51.5673 75.53 49.919 78.3504 47.9751 81.7127C46.6699 84.0382 41.171 95.9043 38.3837 94.9726C38.1283 94.5674 37.8935 93.835 37.8987 93.3711C37.985 85.7682 34.9962 54.2942 37.504 49.0526Z"/><path d="M42.1166 68.82C43.692 69.4357 46.8734 72.2999 49.9549 73.6098C47.5723 78.3213 45.1084 82.9913 42.5644 87.6176C41.645 89.0587 40.3566 91.798 39.5619 93.4056C39.5447 87.0908 38.5487 79.5422 39.9768 73.3502C40.2641 72.1047 41.4786 70.0088 42.1166 68.82Z"/><path d="M39.8819 59.087C41.0162 59.7799 42.4297 60.4912 42.8863 61.6425C42.8582 62.628 41.7588 63.9977 41.162 64.8798C40.6788 65.7895 40.0513 66.6127 39.4484 67.4485C39.4504 64.4467 39.3821 62.0633 39.8819 59.087Z"/><path fill="#FEFEFE" d="M64.0619 49.3669C64.7053 49.4123 65.1824 49.3947 65.7306 49.7455C66.6802 51.1672 68.3373 67.4374 68.8131 70.4914C69.6029 70.9256 70.1262 69.7469 71.3812 69.9524C71.8274 70.532 71.7213 70.2815 71.7121 71.0888C71.231 72.0574 70.0671 72.9638 69.23 73.7094C69.8001 76.2454 73.3108 93.2281 72.2881 94.6549L71.8754 94.6801C71.1761 93.9378 68.1023 78.1363 67.2404 75.2526C66.8586 75.5064 66.0966 76.2689 65.729 76.6167C64.1637 78.0016 64.3553 76.8949 62.7373 76.6944C61.0519 79.1506 61.4955 93.2258 59.1866 94.7788C58.0951 93.2363 60.4013 77.6521 60.7426 74.7827C59.6155 74.246 56.7758 73.041 57.3614 71.5164C58.6381 71.059 60.017 71.9882 61.1627 72.5695C61.2299 70.3357 62.0558 64.4816 62.3587 62.1019C62.734 59.1529 63.3115 51.9129 64.0619 49.3669Z"/><path d="M64.6887 62.6107C65.5127 63.2385 66.6283 71.2709 66.9519 72.9233C66.2491 73.6407 65.6989 74.0714 64.9136 74.6931C64.2116 74.8148 63.8433 74.5328 63.4435 74.0509C62.9607 72.315 64.428 65.1003 64.6887 62.6107Z"/><path fill="#FEFEFE" d="M84.7623 49.8847C85.2295 49.9891 91.2444 55.7928 92.3102 56.7449C92.4625 57.7136 92.5683 57.4664 92.1674 58.1692C90.2445 58.8016 87.1072 56.26 85.8447 54.9419C84.7839 56.1885 82.0661 58.3631 80.6672 59.6456C81.0491 59.8037 81.4348 59.9524 81.8239 60.0916C84.9317 61.2359 89.7475 61.1668 92.69 59.604C93.7278 59.0529 94.2698 58.6801 95.3938 59.0999C95.8398 60.1453 94.5516 63.888 93.914 65.1385C92.086 68.7239 89.9231 93.8009 87.7665 94.8213C86.2836 93.353 83.7093 83.3155 83.0218 80.9015C82.2447 78.1629 81.4551 75.388 80.7784 72.6249C80.3013 70.6769 79.1288 67.827 80.7911 66.2061L81.3712 66.3142C82.2047 67.295 83.0619 72.8601 83.4103 74.4105C84.62 79.7929 85.7095 85.3026 87.6903 90.4686C88.7852 82.9382 90.0159 69.7779 91.6282 63.1195C87.0272 64.0007 82.3506 62.9583 78.2167 60.8819C77.4871 60.5155 77.0545 59.9567 76.8624 59.1696C77.3777 56.7184 81.5091 55.9385 83.028 53.901C83.9187 52.7062 83.4878 51.5351 84.7623 49.8847Z"/><path fill="#FEFEFE" d="M107.254 48.3666C108.596 48.8862 115.374 56.1619 114.61 57.954L114.112 58.07C112.121 57.418 109.488 54.5448 108.105 52.9185C107.41 54.6442 105.906 56.9746 104.962 58.76C106.888 58.8997 111.663 59.1703 113.009 60.4083L112.979 60.8727C111.224 62.2426 106.015 61.5851 103.669 61.4274C105.219 72.1213 106.914 81.4247 108.704 91.9848C109.504 89.843 111.71 75.79 112.037 73.194C112.43 70.8598 112.862 64.5732 115.022 63.5376C115.176 63.5859 115.531 63.6488 115.595 63.7872C116.249 65.1935 111.231 90.1965 110.331 93.0037C110.005 94.0234 109.7 94.7668 108.725 95.2653L108.197 95.0562C107.084 93.3764 106.409 89.3128 105.965 87.2033C104.926 82.4568 103.938 77.6991 103.001 72.9313C102.382 69.619 101.507 63.1423 100.352 60.2312C104.141 54.783 104.393 53.9531 107.254 48.3666Z"/></svg>